<svg width="25" height="25" viewBox="0 0 25 25" fill="none" xmlns="http://www.w3.org/2000/svg">
    <path opacity="0.4" fill-rule="evenodd" clip-rule="evenodd" d="M12.8623 0.167236C9.68595 0.168021 6.63999 1.43036 4.39427 3.67663C2.14855 5.92291 0.886963 8.96917 0.886963 12.1455C0.886963 15.3218 2.14855 18.3681 4.39427 20.6144C6.63999 22.8606 9.68595 24.123 12.8623 24.1238V0.167236Z" fill="#6658EB"/>
    <path fill-rule="evenodd" clip-rule="evenodd" d="M24.9459 24.1237H12.8622C6.24499 24.0949 0.883986 18.7778 0.883986 12.1454L0.88208 12.145H12.8623L12.8622 12.1454L12.8823 12.145H13.4882C16.5172 12.2228 19.3994 13.4666 21.5339 15.6171C23.6684 17.7676 24.8907 20.6589 24.9459 23.6884V24.1237Z" fill="#6658EB"/>
    <path opacity="0.51" fill-rule="evenodd" clip-rule="evenodd" d="M12.8625 12.145L0.884187 12.1454C0.878503 14.6206 1.64492 17.036 3.07669 19.0551C3.08708 19.0697 3.09755 19.0844 3.10793 19.099C4.21878 20.6502 5.68271 21.9148 7.37881 22.7885C9.07492 23.6622 10.9545 24.1199 12.8624 24.1237L12.8625 12.145Z" fill="#F3F8FE"/>
    <circle cx="19.8479" cy="6.15647" r="4.99094" fill="#6658EB"/>
</svg>