<svg width="110" height="25" viewBox="0 0 110 25" fill="none" xmlns="http://www.w3.org/2000/svg">
<path d="M47.6209 22.1248H32.9959V18.3498L41.5709 8.24976H32.8959V4.17475H47.3709V8.02476L38.7459 18.0498H47.6209V22.1248ZM55.8028 22.3498C51.6528 22.3498 48.8778 19.5498 48.8778 15.3748C48.8778 11.3498 51.7778 8.42475 55.7778 8.42475C60.2278 8.42475 63.2028 12.0498 62.4278 16.4748H53.3028C53.5278 18.1748 54.3278 19.0248 55.7028 19.0248C56.9028 19.0248 57.7028 18.5248 58.0778 17.5498H62.3528C61.5278 20.6248 59.1528 22.3498 55.8028 22.3498ZM55.6778 11.5748C54.4028 11.5748 53.6528 12.2998 53.3528 13.7998H57.8528C57.8028 12.4498 56.9528 11.5748 55.6778 11.5748ZM68.7733 15.0498V22.1248H64.4983V8.67475H68.4233V10.2998C69.4733 9.12475 70.7233 8.42475 72.4233 8.42475C75.0733 8.42475 76.9483 10.1998 76.9483 13.4748V22.1248H72.6733V14.8998C72.6733 13.1998 72.0733 12.2748 70.7733 12.2748C69.7233 12.2748 68.7733 13.0248 68.7733 15.0498ZM78.785 15.3998C78.785 11.4998 81.16 8.42475 84.785 8.42475C86.185 8.42475 87.385 8.92476 88.435 9.92475V4.17475H92.71V22.1248H88.785V20.5998C87.685 21.7498 86.36 22.3748 84.785 22.3748C81.16 22.3748 78.785 19.2498 78.785 15.3998ZM83.235 15.3998C83.235 17.4998 84.51 18.5248 85.81 18.5248C87.135 18.5248 88.385 17.4998 88.385 15.3748C88.385 13.2248 87.11 12.2748 85.81 12.2748C84.51 12.2748 83.235 13.2498 83.235 15.3998ZM101.679 22.3748C97.7041 22.3748 94.6541 19.2498 94.6541 15.3998C94.6541 11.5498 97.7041 8.42475 101.679 8.42475C105.654 8.42475 108.704 11.5498 108.704 15.3998C108.704 19.2498 105.654 22.3748 101.679 22.3748ZM101.679 18.5498C103.004 18.5498 104.254 17.4998 104.254 15.3998C104.254 13.2998 103.004 12.2748 101.679 12.2748C100.354 12.2748 99.1041 13.2998 99.1041 15.3998C99.1041 17.4998 100.354 18.5498 101.679 18.5498Z" fill="white"/>
<path opacity="0.4" fill-rule="evenodd" clip-rule="evenodd" d="M12.8623 0.167236C9.68595 0.168021 6.63999 1.43036 4.39427 3.67663C2.14855 5.92291 0.886963 8.96917 0.886963 12.1455C0.886963 15.3218 2.14855 18.3681 4.39427 20.6144C6.63999 22.8606 9.68595 24.123 12.8623 24.1238V0.167236Z" fill="#6658EB"/>
<path fill-rule="evenodd" clip-rule="evenodd" d="M24.9459 24.1237H12.8622C6.24499 24.0949 0.883986 18.7778 0.883986 12.1454L0.88208 12.145H12.8623L12.8622 12.1454L12.8823 12.145H13.4882C16.5172 12.2228 19.3994 13.4666 21.5339 15.6171C23.6684 17.7676 24.8907 20.6589 24.9459 23.6884V24.1237Z" fill="#6658EB"/>
<path opacity="0.51" fill-rule="evenodd" clip-rule="evenodd" d="M12.8625 12.145L0.884187 12.1454C0.878503 14.6206 1.64492 17.036 3.07669 19.0551C3.08708 19.0697 3.09755 19.0844 3.10793 19.099C4.21878 20.6502 5.68271 21.9148 7.37881 22.7885C9.07492 23.6622 10.9545 24.1199 12.8624 24.1237L12.8625 12.145Z" fill="#F3F8FE"/>
<circle cx="19.8479" cy="6.15647" r="4.99094" fill="#6658EB"/>
</svg>
